<svg width="14" height="18" viewBox="0 0 14 18" fill="none" xmlns="http://www.w3.org/2000/svg">
<path d="M1 3.9148C1 2.89462 1 2.38453 1.20762 1.99468C1.39023 1.65191 1.68161 1.37323 2.04 1.19857C2.44762 1 2.98095 1 4.04762 1H9.38095C10.4476 1 10.981 1 11.3886 1.19857C11.747 1.37323 12.0383 1.65191 12.221 1.99468C12.4286 2.38453 12.4286 2.89462 12.4286 3.9148V16.034C12.4286 16.4767 12.4286 16.698 12.3324 16.8192C12.2908 16.8719 12.2378 16.9153 12.1769 16.9464C12.1161 16.9776 12.0489 16.9957 11.98 16.9995C11.821 17.0086 11.6286 16.8857 11.2438 16.6406L6.71429 13.7523L2.18476 16.6397C1.8 16.8857 1.60762 17.0086 1.44762 16.9995C1.37889 16.9956 1.31188 16.9774 1.25121 16.9462C1.19054 16.9151 1.13765 16.8718 1.09619 16.8192C1 16.698 1 16.4767 1 16.034V3.9148Z" stroke-width="1.5" stroke-linecap="round" stroke-linejoin="round"/>
</svg>
