<svg width="10" height="12" viewBox="0 0 10 12" fill="none" xmlns="http://www.w3.org/2000/svg">
<path d="M5 0C2.36 0 0.199997 2.16 0.199997 4.8C0.199997 8.04 4.4 11.7 4.58 11.88C4.7 11.94 4.88 12 5 12C5.12 12 5.3 11.94 5.42 11.88C5.6 11.7 9.8 8.04 9.8 4.8C9.8 2.16 7.64 0 5 0ZM5 10.62C3.74 9.42 1.4 6.84 1.4 4.8C1.4 2.82 3.02 1.2 5 1.2C6.98 1.2 8.6 2.82 8.6 4.8C8.6 6.78 6.26 9.42 5 10.62ZM5 2.4C3.68 2.4 2.6 3.48 2.6 4.8C2.6 6.12 3.68 7.2 5 7.2C6.32 7.2 7.4 6.12 7.4 4.8C7.4 3.48 6.32 2.4 5 2.4ZM5 6C4.34 6 3.8 5.46 3.8 4.8C3.8 4.14 4.34 3.6 5 3.6C5.66 3.6 6.2 4.14 6.2 4.8C6.2 5.46 5.66 6 5 6Z"/>
</svg>
